/* XPM */
static char * max_unfocus_xpm[] = {
"32 32 12 1",
" 	c None",
".	c #FFFFFF",
"+	c #FDF4F0",
"@	c #F2BDA3",
"#	c #EB986F",
"$	c #E78556",
"%	c #E6804E",
"&	c #F7D5C4",
"*	c #E78657",
"=	c #E6804F",
"-	c #EB976F",
";	c #E78656",
"...+@#$%%%%%%%%%%%%%%%%%%%%%%%%%",
"..&*%%%%%%%%%%%%%%%%%%%%%%%%%%%%",
".&=%%%%%%%%%%%%%%%%%%%%%%%%%%%%%",
"+*%%%%%%%%%%%%%%%%%%%%%%%%%%%%%%",
"@%%%%%%%%%%%%%%%%%%%%%%%%%%%%%%%",
"-%%%%%%%%%%%%%%%%%%%%%%%%%%%%%%%",
";%%%%%%%%%%%%%%%%%%%%%%%%%%%%%%%",
"%%%%%%%%%%%%%%%%%%%%%%%%%%%%%%%%",
"%%%%%%%%%%%%%%%%%%%%%%%%%%%%%%%%",
"%%%%%%%%%%%%%%%%%%%%%%%%%%%%%%%%",
"%%%%%%%%%%%%%%%%%%%%%%%%%%%%%%%%",
"%%%%%%%%%%%%%%%%%%%%%%%%%%%%%%%%",
"%%%%%%%%%%%%%%%%%%%%%%%%%%%%%%%%",
"%%%%%%%%%%%%%.%%%%.%%%%%%%%%%%%%",
"%%%%%%%%%%%%%%.%%.%%%%%%%%%%%%%%",
"%%%%%%%%%%%%%%%..%%%%%%%%%%%%%%%",
"%%%%%%%%%%%%%%%..%%%%%%%%%%%%%%%",
"%%%%%%%%%%%%%%.%%.%%%%%%%%%%%%%%",
"%%%%%%%%%%%%%.%%%%.%%%%%%%%%%%%%",
"%%%%%%%%%%%%%%%%%%%%%%%%%%%%%%%%",
"%%%%%%%%%%%%%%%%%%%%%%%%%%%%%%%%",
"%%%%%%%%%%%%%%%%%%%%%%%%%%%%%%%%",
"%%%%%%%%%%%%%%%%%%%%%%%%%%%%%%%%",
"%%%%%%%%%%%%%%%%%%%%%%%%%%%%%%%%",
"%%%%%%%%%%%%%%%%%%%%%%%%%%%%%%%%",
"%%%%%%%%%%%%%%%%%%%%%%%%%%%%%%%%",
"%%%%%%%%%%%%%%%%%%%%%%%%%%%%%%%%",
"%%%%%%%%%%%%%%%%%%%%%%%%%%%%%%%%",
"%%%%%%%%%%%%%%%%%%%%%%%%%%%%%%%%",
"%%%%%%%%%%%%%%%%%%%%%%%%%%%%%%%%",
"%%%%%%%%%%%%%%%%%%%%%%%%%%%%%%%%",
"%%%%%%%%%%%%%%%%%%%%%%%%%%%%%%%%"};
