/* XPM */
static char * max_focus_xpm[] = {
"32 32 28 1",
" 	c None",
".	c #FFFFFF",
"+	c #FFFEFE",
"@	c #6F7A7A",
"#	c #FEFAF7",
"$	c #FDF3EE",
"%	c #FAE8DF",
"&	c #F7D5C4",
"*	c #F2BEA4",
"=	c #EC9D76",
"-	c #FDF5F1",
";	c #E68251",
">	c #F5CAB5",
",	c #E6804E",
"'	c #EB976E",
")	c #F7D8C9",
"!	c #FFFDFC",
"~	c #F4C5AE",
"{	c #E78454",
"]	c #FDF5F0",
"^	c #E99166",
"/	c #FEF9F7",
"(	c #EB9A73",
"_	c #FDF6F3",
":	c #FAE7DE",
"<	c #EA9267",
"[	c #F4C6B0",
"}	c #F8DACC",
"................................",
"................................",
"................................",
"................................",
"................................",
"................................",
"................................",
"................................",
"................................",
"................................",
"................................",
"................................",
"...............................+",
"................@@@............#",
".................@@............$",
"................@.@............%",
".............@.@...............&",
".............@@................*",
".............@@@...............=",
"..............................-;",
"..............................>,",
".............................+',",
".............................),,",
"............................!',,",
"............................~,,,",
"...........................%{,,,",
"..........................]^,,,,",
"........................./(,,,,,",
"........................_=,,,,,,",
".......................:<,,,,,,,",
".....................![{,,,,,,,,",
"....................}',,,,,,,,,,"};
