/* XPM */
static char * task_focus_xpm[] = {
"4 32 3 1",
" 	c None",
".	c #FFFFFF",
"+	c #E6804E",
"....",
"....",
"....",
"....",
"....",
"....",
"....",
"....",
"....",
"....",
"....",
"....",
"....",
"....",
"....",
"....",
"....",
"....",
"....",
"....",
"....",
"....",
"....",
"....",
"....",
"....",
"....",
"....",
"....",
"++++",
"++++",
"++++"};
